<svg xmlns="http://www.w3.org/2000/svg" width="86" height="168" fill="none" viewBox="0 0 86 168">
  <g clip-path="url(#a)">
    <path fill="#35302D" d="M3.18 10.18c0 .88-.71 1.59-1.59 1.59-.88 0-1.59-.71-1.59-1.59 0-.88.71-1.59 1.59-1.59.88 0 1.59.71 1.59 1.59Zm0 15.62c0 .88-.71 1.59-1.59 1.59-.88 0-1.59-.71-1.59-1.59 0-.88.71-1.59 1.59-1.59.88 0 1.59.71 1.59 1.59Zm0 15.61c0 .88-.71 1.59-1.59 1.59C.71 43 0 42.29 0 41.41c0-.88.71-1.59 1.59-1.59.88 0 1.59.71 1.59 1.59Zm0 15.62c0 .88-.71 1.59-1.59 1.59-.88 0-1.59-.71-1.59-1.59 0-.88.71-1.59 1.59-1.59.88 0 1.59.71 1.59 1.59Zm0 15.61c0 .88-.71 1.59-1.59 1.59-.88 0-1.59-.71-1.59-1.59 0-.88.71-1.59 1.59-1.59.88 0 1.59.71 1.59 1.59Zm0 15.62c0 .88-.71 1.59-1.59 1.59-.88 0-1.59-.71-1.59-1.59 0-.88.71-1.59 1.59-1.59.88 0 1.59.71 1.59 1.59Zm0 15.61c0 .88-.71 1.59-1.59 1.59-.88 0-1.59-.71-1.59-1.59 0-.88.71-1.59 1.59-1.59.88 0 1.59.71 1.59 1.59Zm0 15.62c0 .88-.71 1.59-1.59 1.59-.88 0-1.59-.71-1.59-1.59 0-.88.71-1.59 1.59-1.59.88 0 1.59.71 1.59 1.59Zm0 15.61c0 .88-.71 1.59-1.59 1.59-.88 0-1.59-.71-1.59-1.59 0-.88.71-1.59 1.59-1.59.88 0 1.59.71 1.59 1.59Zm0 15.62c0 .88-.71 1.59-1.59 1.59-.88 0-1.59-.71-1.59-1.59 0-.88.71-1.59 1.59-1.59.88 0 1.59.71 1.59 1.59Zm0 15.61c0 .88-.71 1.59-1.59 1.59-.88 0-1.59-.71-1.59-1.59 0-.88.71-1.59 1.59-1.59.88 0 1.59.71 1.59 1.59ZM12.87 3.7a1.59 1.59 0 1 0 0-3.18 1.59 1.59 0 0 0 0 3.18Zm0 15.61a1.59 1.59 0 1 0-.001-3.18 1.59 1.59 0 0 0 0 3.18Zm0 15.62a1.59 1.59 0 1 0 0-3.18 1.59 1.59 0 0 0 0 3.18Zm0 15.61a1.59 1.59 0 1 0 0-3.18 1.59 1.59 0 0 0 0 3.18Zm1.58 14.03c0 .88-.71 1.59-1.59 1.59-.88 0-1.59-.71-1.59-1.59 0-.88.71-1.59 1.59-1.59.88 0 1.59.71 1.59 1.59Zm-1.58 17.2a1.59 1.59 0 1 0 0-3.18 1.59 1.59 0 0 0 0 3.18Zm0 15.62a1.59 1.59 0 1 0 0-3.18 1.59 1.59 0 0 0 0 3.18Zm0 15.61a1.59 1.59 0 1 0-.001-3.18 1.59 1.59 0 0 0 0 3.18Zm1.58 14.03c0 .88-.71 1.59-1.59 1.59-.88 0-1.59-.71-1.59-1.59 0-.88.71-1.59 1.59-1.59.88 0 1.59.71 1.59 1.59Zm-1.58 17.2a1.59 1.59 0 1 0-.001-3.18 1.59 1.59 0 0 0 0 3.18Zm0 15.62a1.59 1.59 0 1 0-.001-3.18 1.59 1.59 0 0 0 0 3.18ZM24.35 9.67c0 .88-.71 1.59-1.59 1.59-.88 0-1.59-.71-1.59-1.59 0-.88.71-1.59 1.59-1.59.88 0 1.59.71 1.59 1.59Zm0 15.61c0 .88-.71 1.59-1.59 1.59-.88 0-1.59-.71-1.59-1.59 0-.88.71-1.59 1.59-1.59.88 0 1.59.71 1.59 1.59Zm0 15.62c0 .88-.71 1.59-1.59 1.59-.88 0-1.59-.71-1.59-1.59 0-.88.71-1.59 1.59-1.59.88 0 1.59.71 1.59 1.59Zm0 15.61c0 .88-.71 1.59-1.59 1.59-.88 0-1.59-.71-1.59-1.59 0-.88.71-1.59 1.59-1.59.88 0 1.59.71 1.59 1.59Zm0 15.62c0 .88-.71 1.59-1.59 1.59-.88 0-1.59-.71-1.59-1.59 0-.88.71-1.59 1.59-1.59.88 0 1.59.71 1.59 1.59Zm0 15.61c0 .88-.71 1.59-1.59 1.59-.88 0-1.59-.71-1.59-1.59 0-.88.71-1.59 1.59-1.59.88 0 1.59.71 1.59 1.59Zm0 15.61c0 .88-.71 1.59-1.59 1.59-.88 0-1.59-.71-1.59-1.59 0-.88.71-1.59 1.59-1.59.88 0 1.59.71 1.59 1.59Zm0 15.62c0 .88-.71 1.59-1.59 1.59-.88 0-1.59-.71-1.59-1.59 0-.88.71-1.59 1.59-1.59.88 0 1.59.71 1.59 1.59Zm0 15.61c0 .88-.71 1.59-1.59 1.59-.88 0-1.59-.71-1.59-1.59 0-.88.71-1.59 1.59-1.59.88 0 1.59.71 1.59 1.59Zm0 15.62c0 .88-.71 1.59-1.59 1.59-.88 0-1.59-.71-1.59-1.59 0-.88.71-1.59 1.59-1.59.88 0 1.59.71 1.59 1.59Zm0 15.61c0 .88-.71 1.59-1.59 1.59-.88 0-1.59-.71-1.59-1.59 0-.88.71-1.59 1.59-1.59.88 0 1.59.71 1.59 1.59ZM35.62 1.59c0 .88-.71 1.59-1.59 1.59-.88 0-1.59-.71-1.59-1.59 0-.88.71-1.59 1.59-1.59.88 0 1.59.71 1.59 1.59Zm0 15.61c0 .88-.71 1.59-1.59 1.59-.88 0-1.59-.71-1.59-1.59 0-.88.71-1.59 1.59-1.59.88 0 1.59.71 1.59 1.59Zm0 15.62c0 .88-.71 1.59-1.59 1.59-.88 0-1.59-.71-1.59-1.59 0-.88.71-1.59 1.59-1.59.88 0 1.59.71 1.59 1.59Zm0 15.61c0 .88-.71 1.59-1.59 1.59-.88 0-1.59-.71-1.59-1.59 0-.88.71-1.59 1.59-1.59.88 0 1.59.71 1.59 1.59Zm0 15.62c0 .88-.71 1.59-1.59 1.59-.88 0-1.59-.71-1.59-1.59 0-.88.71-1.59 1.59-1.59.88 0 1.59.71 1.59 1.59Zm0 15.61c0 .88-.71 1.59-1.59 1.59-.88 0-1.59-.71-1.59-1.59 0-.88.71-1.59 1.59-1.59.88 0 1.59.71 1.59 1.59Zm0 15.62c0 .88-.71 1.59-1.59 1.59-.88 0-1.59-.71-1.59-1.59 0-.88.71-1.59 1.59-1.59.88 0 1.59.71 1.59 1.59Zm0 15.61c0 .88-.71 1.59-1.59 1.59-.88 0-1.59-.71-1.59-1.59 0-.88.71-1.59 1.59-1.59.88 0 1.59.71 1.59 1.59Zm0 15.62c0 .88-.71 1.59-1.59 1.59-.88 0-1.59-.71-1.59-1.59 0-.88.71-1.59 1.59-1.59.88 0 1.59.71 1.59 1.59Zm0 15.61c0 .88-.71 1.59-1.59 1.59-.88 0-1.59-.71-1.59-1.59 0-.88.71-1.59 1.59-1.59.88 0 1.59.71 1.59 1.59Zm0 15.62c0 .88-.71 1.59-1.59 1.59-.88 0-1.59-.71-1.59-1.59 0-.88.71-1.59 1.59-1.59.88 0 1.59.71 1.59 1.59ZM46.27 10.18c0 .88-.71 1.59-1.59 1.59-.88 0-1.59-.71-1.59-1.59 0-.88.71-1.59 1.59-1.59.88 0 1.59.71 1.59 1.59Zm0 15.62c0 .88-.71 1.59-1.59 1.59-.88 0-1.59-.71-1.59-1.59 0-.88.71-1.59 1.59-1.59.88 0 1.59.71 1.59 1.59Zm0 15.61c0 .88-.71 1.59-1.59 1.59-.88 0-1.59-.71-1.59-1.59 0-.88.71-1.59 1.59-1.59.88 0 1.59.71 1.59 1.59Zm0 15.62c0 .88-.71 1.59-1.59 1.59-.88 0-1.59-.71-1.59-1.59 0-.88.71-1.59 1.59-1.59.88 0 1.59.71 1.59 1.59Zm0 15.61c0 .88-.71 1.59-1.59 1.59-.88 0-1.59-.71-1.59-1.59 0-.88.71-1.59 1.59-1.59.88 0 1.59.71 1.59 1.59Zm0 15.62c0 .88-.71 1.59-1.59 1.59-.88 0-1.59-.71-1.59-1.59 0-.88.71-1.59 1.59-1.59.88 0 1.59.71 1.59 1.59Zm0 15.61c0 .88-.71 1.59-1.59 1.59-.88 0-1.59-.71-1.59-1.59 0-.88.71-1.59 1.59-1.59.88 0 1.59.71 1.59 1.59Zm0 15.62c0 .88-.71 1.59-1.59 1.59-.88 0-1.59-.71-1.59-1.59 0-.88.71-1.59 1.59-1.59.88 0 1.59.71 1.59 1.59Zm0 15.61c0 .88-.71 1.59-1.59 1.59-.88 0-1.59-.71-1.59-1.59 0-.88.71-1.59 1.59-1.59.88 0 1.59.71 1.59 1.59Zm0 15.62c0 .88-.71 1.59-1.59 1.59-.88 0-1.59-.71-1.59-1.59 0-.88.71-1.59 1.59-1.59.88 0 1.59.71 1.59 1.59Zm0 15.61c0 .88-.71 1.59-1.59 1.59-.88 0-1.59-.71-1.59-1.59 0-.88.71-1.59 1.59-1.59.88 0 1.59.71 1.59 1.59ZM55.96 3.7a1.59 1.59 0 1 0 .001-3.18 1.59 1.59 0 0 0 0 3.18Zm0 15.61a1.59 1.59 0 1 0 0-3.18 1.59 1.59 0 0 0 0 3.18Zm0 15.62a1.59 1.59 0 1 0 .001-3.18 1.59 1.59 0 0 0 0 3.18Zm0 15.61a1.59 1.59 0 1 0 .001-3.18 1.59 1.59 0 0 0 0 3.18Zm1.591 14.03c0 .88-.71 1.59-1.59 1.59-.88 0-1.59-.71-1.59-1.59 0-.88.71-1.59 1.59-1.59.88 0 1.59.71 1.59 1.59Zm-1.591 17.2a1.59 1.59 0 1 0 .001-3.18 1.59 1.59 0 0 0 0 3.18Zm0 15.62a1.59 1.59 0 1 0 .001-3.18 1.59 1.59 0 0 0 0 3.18Zm0 15.61a1.59 1.59 0 1 0 0-3.18 1.59 1.59 0 0 0 0 3.18Zm1.591 14.03c0 .88-.71 1.59-1.59 1.59-.88 0-1.59-.71-1.59-1.59 0-.88.71-1.59 1.59-1.59.88 0 1.59.71 1.59 1.59Zm-1.591 17.2a1.59 1.59 0 1 0 0-3.18 1.59 1.59 0 0 0 0 3.18Zm0 15.62a1.59 1.59 0 1 0 0-3.18 1.59 1.59 0 0 0 0 3.18ZM67.45 9.67c0 .88-.71 1.59-1.59 1.59-.88 0-1.59-.71-1.59-1.59 0-.88.71-1.59 1.59-1.59.88 0 1.59.71 1.59 1.59Zm-1.59 17.2a1.59 1.59 0 1 0 0-3.18 1.59 1.59 0 0 0 0 3.18Zm0 15.62a1.59 1.59 0 1 0 0-3.18 1.59 1.59 0 0 0 0 3.18Zm0 15.61a1.59 1.59 0 1 0 0-3.18 1.59 1.59 0 0 0 0 3.18Zm0 15.62a1.59 1.59 0 1 0 0-3.18 1.59 1.59 0 0 0 0 3.18Zm1.59 14.02c0 .88-.71 1.59-1.59 1.59-.88 0-1.59-.71-1.59-1.59 0-.88.71-1.59 1.59-1.59.88 0 1.59.71 1.59 1.59Zm-1.59 17.2a1.59 1.59 0 1 0 0-3.18 1.59 1.59 0 0 0 0 3.18Zm0 15.62a1.59 1.59 0 1 0 0-3.18 1.59 1.59 0 0 0 0 3.18Zm0 15.61a1.59 1.59 0 1 0 0-3.18 1.59 1.59 0 0 0 0 3.18Zm1.59 14.03c0 .88-.71 1.59-1.59 1.59-.88 0-1.59-.71-1.59-1.59 0-.88.71-1.59 1.59-1.59.88 0 1.59.71 1.59 1.59Zm0 15.61c0 .88-.71 1.59-1.59 1.59-.88 0-1.59-.71-1.59-1.59 0-.88.71-1.59 1.59-1.59.88 0 1.59.71 1.59 1.59ZM78.72 1.59c0 .88-.711 1.59-1.591 1.59s-1.59-.71-1.59-1.59c0-.88.71-1.59 1.59-1.59.88 0 1.59.71 1.59 1.59Zm-1.591 17.2a1.59 1.59 0 1 0 0-3.18 1.59 1.59 0 0 0 0 3.18Zm0 15.62a1.59 1.59 0 1 0 0-3.18 1.59 1.59 0 0 0 0 3.18Zm0 15.61a1.59 1.59 0 1 0 0-3.18 1.59 1.59 0 0 0 0 3.18Zm1.591 14.03c0 .88-.711 1.59-1.591 1.59s-1.59-.71-1.59-1.59c0-.88.71-1.59 1.59-1.59.88 0 1.59.71 1.59 1.59Zm0 15.61c0 .88-.711 1.59-1.591 1.59s-1.59-.71-1.59-1.59c0-.88.71-1.59 1.59-1.59.88 0 1.59.71 1.59 1.59Zm-1.591 17.21a1.59 1.59 0 1 0 0-3.18 1.59 1.59 0 0 0 0 3.18Zm0 15.61a1.59 1.59 0 1 0 0-3.18 1.59 1.59 0 0 0 0 3.18Zm0 15.62a1.59 1.59 0 1 0 0-3.18 1.59 1.59 0 0 0 0 3.18Zm1.591 14.02c0 .88-.711 1.59-1.591 1.59s-1.59-.71-1.59-1.59c0-.88.71-1.59 1.59-1.59.88 0 1.59.71 1.59 1.59Zm-1.591 17.21a1.59 1.59 0 1 0 0-3.18 1.59 1.59 0 0 0 0 3.18Z"/>
  </g>
  <defs>
    <clipPath id="a">
      <path fill="#fff" d="M0 0h86v168H0z"/>
    </clipPath>
  </defs>
</svg>
