<svg xmlns="http://www.w3.org/2000/svg" width="199" height="637" fill="none" viewBox="0 0 199 637">
  <path fill="#FB4E2B" d="M178.515 20.07s.11 0 .11-.111 0-.111-.11-.111c-.111 0-.111 0-.111.11 0 .112 0 .112.111.112Zm-19.836 20.012s.221-.11.221-.22a.238.238 0 0 0-.221-.222c-.11 0-.22.11-.22.221 0 .11.11.221.22.221Zm19.837.221s.441-.221.441-.442-.221-.442-.441-.442-.441.22-.441.442c0 .22.221.442.441.442ZM138.848 60.04s.275-.11.275-.276c0-.166-.11-.277-.275-.277-.166 0-.276.11-.276.277 0 .165.11.276.276.276Zm19.832.222s.496-.222.496-.498a.494.494 0 1 0-.991 0c0 .276.22.498.495.498Zm19.833.221a.73.73 0 0 0 .716-.72.73.73 0 0 0-.716-.718.73.73 0 0 0-.716.719c0 .387.33.719.716.719ZM99.176 79.722v-.055.055Zm19.834.221s.275-.11.275-.276c0-.166-.11-.276-.275-.276-.165 0-.276.11-.276.276 0 .166.111.276.276.276Zm19.832.277c.33 0 .551-.222.551-.553 0-.332-.221-.553-.551-.553-.331 0-.551.22-.551.553 0 .331.22.552.551.552Zm19.838.22a.755.755 0 0 0 .772-.773.755.755 0 0 0-.772-.774.755.755 0 0 0-.771.774c0 .442.331.774.771.774Zm19.834.222a.99.99 0 0 0 .992-.995.99.99 0 0 0-.992-.995.99.99 0 0 0-.992.995.99.99 0 0 0 .992.995ZM99.177 99.846s.275-.11.275-.276c0-.166-.11-.277-.275-.277-.165 0-.276.11-.276.277 0 .166.11.276.276.276Zm19.833.276c.33 0 .551-.22.551-.553 0-.331-.221-.553-.551-.553-.331 0-.551.222-.551.553 0 .332.22.553.551.553Zm19.833.221c.44 0 .771-.332.771-.774a.755.755 0 0 0-.771-.774.755.755 0 0 0-.772.774c0 .442.331.774.772.774Zm19.839.277c.551 0 1.046-.498 1.046-1.05 0-.553-.44-1.051-1.046-1.051-.606 0-1.047.442-1.047 1.05 0 .609.441 1.051 1.047 1.051Zm19.832.221a1.25 1.25 0 0 0 1.268-1.272 1.25 1.25 0 0 0-1.268-1.271c-.716 0-1.267.553-1.267 1.271a1.25 1.25 0 0 0 1.267 1.272Zm-99.173 18.852s.221-.11.221-.221c0-.11-.11-.221-.22-.221s-.22.111-.22.221c0 .111.11.221.22.221Zm19.835.277s.496-.222.496-.498a.495.495 0 1 0-.991 0c0 .276.22.498.495.498Zm19.834.276a.754.754 0 0 0 .771-.774.754.754 0 0 0-.771-.774.755.755 0 0 0-.772.774c0 .443.331.774.772.774Zm19.834.277c.551 0 1.046-.498 1.046-1.051 0-.553-.44-1.05-1.046-1.05-.607 0-1.047.442-1.047 1.05 0 .608.44 1.051 1.047 1.051Zm19.837.22c.716 0 1.267-.552 1.267-1.271a1.25 1.25 0 0 0-1.267-1.272 1.25 1.25 0 0 0-1.267 1.272c0 .719.551 1.271 1.267 1.271Zm19.835.277c.827 0 1.543-.718 1.543-1.548 0-.829-.716-1.548-1.543-1.548-.826 0-1.542.719-1.542 1.548 0 .83.716 1.548 1.542 1.548ZM59.507 139.486s.11 0 .11-.111 0-.111-.11-.111-.11 0-.11.111 0 .111.11.111Zm19.836.331s.44-.221.44-.442c0-.222-.22-.443-.44-.443s-.44.221-.44.443c0 .221.22.442.44.442Zm19.832.277a.73.73 0 0 0 .717-.719.73.73 0 0 0-.717-.719.73.73 0 0 0-.716.719c0 .387.33.719.716.719Zm19.835.276a.99.99 0 0 0 .992-.995.99.99 0 0 0-.992-.995.988.988 0 0 0-.991.995c0 .553.44.995.991.995Zm19.834.277a1.25 1.25 0 0 0 1.268-1.272c0-.719-.551-1.271-1.268-1.271-.716 0-1.267.552-1.267 1.271a1.25 1.25 0 0 0 1.267 1.272Zm19.833.276c.826 0 1.542-.719 1.542-1.548 0-.829-.716-1.548-1.542-1.548-.827 0-1.543.719-1.543 1.548 0 .829.716 1.548 1.543 1.548Zm19.839.221c.992 0 1.763-.774 1.763-1.769 0-.995-.771-1.769-1.763-1.769-.992 0-1.763.774-1.763 1.769 0 .995.771 1.769 1.763 1.769Zm-119.011 18.41s.276-.111.276-.276c0-.166-.11-.277-.276-.277-.165 0-.276.111-.276.277 0 .165.11.276.276.276Zm19.835.332c.33 0 .606-.276.606-.608a.612.612 0 0 0-.606-.608.612.612 0 0 0-.606.608c0 .332.276.608.606.608Zm19.834.276a.871.871 0 0 0 .881-.884.872.872 0 0 0-.881-.885.872.872 0 0 0-.882.885c0 .497.386.884.882.884Zm19.835.332c.661 0 1.212-.553 1.212-1.216 0-.664-.551-1.216-1.212-1.216-.661 0-1.212.552-1.212 1.216 0 .663.551 1.216 1.212 1.216Zm19.834.276c.826 0 1.488-.663 1.488-1.492 0-.83-.662-1.493-1.488-1.493s-1.488.663-1.488 1.493c0 .829.662 1.492 1.488 1.492Zm19.839.277c.992 0 1.763-.774 1.763-1.77 0-.995-.771-1.769-1.763-1.769-.992 0-1.763.774-1.763 1.769 0 .996.771 1.77 1.763 1.77Zm19.833.221a1.978 1.978 0 0 0 1.983-1.99 1.979 1.979 0 0 0-1.983-1.991 1.98 1.98 0 0 0-1.984 1.991 1.98 1.98 0 0 0 1.984 1.99ZM39.669 179.291s.11 0 .11-.11c0-.111 0-.111-.11-.111s-.11 0-.11.111c0 .11 0 .11.11.11Zm19.835.332s.441-.221.441-.442-.22-.443-.44-.443c-.221 0-.441.222-.441.443s.22.442.44.442Zm19.835.331c.44 0 .771-.331.771-.774a.755.755 0 0 0-.771-.774.755.755 0 0 0-.772.774c0 .443.33.774.772.774Zm19.834.277c.55 0 1.046-.442 1.046-1.05 0-.608-.44-1.051-1.046-1.051-.606 0-1.047.443-1.047 1.051 0 .608.44 1.05 1.047 1.05Zm19.834.332c.772 0 1.378-.609 1.378-1.383s-.606-1.382-1.378-1.382c-.771 0-1.377.608-1.377 1.382 0 .774.606 1.383 1.377 1.383Zm19.84.276c.937 0 1.653-.718 1.653-1.658s-.716-1.659-1.653-1.659-1.653.719-1.653 1.659c0 .94.716 1.658 1.653 1.658Zm19.834.277c1.047 0 1.929-.885 1.929-1.935 0-1.051-.882-1.935-1.929-1.935-1.046 0-1.928.884-1.928 1.935 0 1.05.882 1.935 1.928 1.935Zm19.836.331a2.238 2.238 0 0 0 2.259-2.267 2.239 2.239 0 0 0-2.259-2.267 2.239 2.239 0 0 0-2.259 2.267c0 1.272.992 2.267 2.259 2.267ZM39.673 199.36s.276-.111.276-.277c0-.165-.11-.276-.276-.276-.165 0-.275.111-.275.276 0 .166.11.277.275.277Zm19.835.331c.33 0 .606-.276.606-.608a.612.612 0 0 0-.606-.608.612.612 0 0 0-.606.608c0 .332.276.608.606.608Zm19.833.277a.872.872 0 0 0 .882-.885.872.872 0 0 0-.882-.884.872.872 0 0 0-.881.884c0 .498.386.885.882.885Zm19.836.331c.661 0 1.212-.552 1.212-1.216 0-.663-.55-1.216-1.212-1.216-.661 0-1.212.553-1.212 1.216 0 .664.55 1.216 1.212 1.216Zm19.835.333c.826 0 1.542-.719 1.542-1.548 0-.83-.716-1.548-1.542-1.548-.827 0-1.543.718-1.543 1.548 0 .829.716 1.548 1.543 1.548Zm19.835.331a1.86 1.86 0 0 0 1.873-1.88 1.86 1.86 0 0 0-1.873-1.879 1.86 1.86 0 0 0-1.873 1.879 1.86 1.86 0 0 0 1.873 1.88Zm19.834.276c1.157 0 2.149-.94 2.149-2.156 0-1.216-.937-2.156-2.149-2.156s-2.149.94-2.149 2.156c0 1.216.937 2.156 2.149 2.156Zm19.834.277c1.322 0 2.424-1.106 2.424-2.433 0-1.326-1.102-2.432-2.424-2.432-1.322 0-2.424 1.106-2.424 2.432 0 1.327 1.102 2.433 2.424 2.433ZM19.832 219.041v-.055.055Zm19.838.332s.385-.166.385-.387a.377.377 0 0 0-.385-.387.377.377 0 0 0-.386.387c0 .221.165.387.386.387Zm19.834.332a.73.73 0 0 0 .717-.719.73.73 0 0 0-.717-.718.73.73 0 0 0-.716.718c0 .387.33.719.716.719Zm19.836.331c.55 0 1.047-.497 1.047-1.05s-.441-1.05-1.047-1.05c-.606 0-1.047.442-1.047 1.05 0 .608.44 1.05 1.047 1.05Zm19.834.332c.772 0 1.378-.608 1.378-1.382 0-.774-.606-1.382-1.378-1.382-.771 0-1.377.608-1.377 1.382 0 .774.606 1.382 1.377 1.382Zm19.836.332a1.72 1.72 0 0 0 1.708-1.714 1.72 1.72 0 0 0-1.708-1.714 1.72 1.72 0 0 0-1.708 1.714c0 .94.771 1.714 1.708 1.714Zm19.835.276a1.978 1.978 0 0 0 1.983-1.99 1.979 1.979 0 0 0-1.983-1.991 1.98 1.98 0 0 0-1.984 1.991 1.98 1.98 0 0 0 1.984 1.99Zm19.835.332a2.332 2.332 0 0 0 2.314-2.322 2.332 2.332 0 0 0-2.314-2.322 2.332 2.332 0 0 0-2.314 2.322 2.332 2.332 0 0 0 2.314 2.322Zm19.835.332a2.65 2.65 0 0 0 2.645-2.654c0-1.493-1.157-2.654-2.645-2.654s-2.645 1.161-2.645 2.654c0 1.493 1.157 2.654 2.645 2.654ZM19.835 239s.11 0 .11-.111 0-.111-.11-.111-.11 0-.11.111 0 .111.11.111Zm19.837.386s.496-.221.496-.498a.495.495 0 0 0-.496-.497.494.494 0 0 0-.496.497c0 .277.22.498.496.498Zm19.835.332a.85.85 0 0 0 .827-.829.849.849 0 0 0-.827-.829.849.849 0 0 0-.826.829c0 .442.385.829.826.829Zm19.835.331c.661 0 1.157-.497 1.157-1.161 0-.663-.496-1.161-1.157-1.161s-1.157.498-1.157 1.161c0 .664.496 1.161 1.157 1.161Zm19.835.333c.826 0 1.488-.664 1.488-1.493 0-.829-.662-1.493-1.488-1.493-.827 0-1.488.664-1.488 1.493 0 .829.662 1.493 1.488 1.493Zm19.832.331c.991 0 1.818-.829 1.818-1.825 0-.995-.827-1.824-1.818-1.824-.992 0-1.819.829-1.819 1.824 0 .996.827 1.825 1.819 1.825Zm19.834.332c1.157 0 2.149-.94 2.149-2.156 0-1.216-.937-2.156-2.149-2.156s-2.149.94-2.149 2.156c0 1.216.937 2.156 2.149 2.156Zm19.835.331a2.473 2.473 0 0 0 2.48-2.488 2.473 2.473 0 0 0-2.48-2.487 2.473 2.473 0 0 0-2.479 2.487 2.473 2.473 0 0 0 2.479 2.488Zm19.839.277a2.732 2.732 0 0 0 2.754-2.764 2.732 2.732 0 0 0-2.754-2.764 2.732 2.732 0 0 0-2.755 2.764 2.732 2.732 0 0 0 2.755 2.764ZM19.833 259.012s.22-.11.22-.221c0-.11-.11-.221-.22-.221s-.22.111-.22.221c0 .111.11.221.22.221Zm19.835.333c.33 0 .551-.222.551-.553 0-.332-.22-.553-.551-.553-.33 0-.55.221-.55.553 0 .331.22.553.55.553Zm19.836.331a.872.872 0 0 0 .881-.885.872.872 0 0 0-.881-.884.872.872 0 0 0-.882.884c0 .498.386.885.882.885Zm19.834.332c.662 0 1.213-.553 1.213-1.216 0-.664-.552-1.217-1.213-1.217-.66 0-1.212.553-1.212 1.217 0 .663.551 1.216 1.212 1.216Zm19.836.332c.826 0 1.542-.719 1.542-1.548 0-.83-.716-1.548-1.542-1.548-.827 0-1.543.718-1.543 1.548 0 .829.716 1.548 1.543 1.548Zm19.835.387c1.047 0 1.929-.885 1.929-1.935 0-1.051-.882-1.935-1.929-1.935-1.046 0-1.928.884-1.928 1.935 0 1.05.882 1.935 1.928 1.935Zm19.836.331a2.238 2.238 0 0 0 2.259-2.267 2.238 2.238 0 0 0-2.259-2.266 2.238 2.238 0 0 0-2.259 2.266c0 1.272.992 2.267 2.259 2.267Zm19.836.332a2.591 2.591 0 0 0 2.59-2.598 2.591 2.591 0 0 0-2.59-2.599 2.591 2.591 0 0 0-2.589 2.599 2.59 2.59 0 0 0 2.589 2.598Zm19.834.332c1.598 0 2.92-1.327 2.92-2.931 0-1.603-1.322-2.93-2.92-2.93-1.598 0-2.92 1.327-2.92 2.93 0 1.604 1.322 2.931 2.92 2.931ZM19.833 278.971s.276-.11.276-.276c0-.166-.11-.277-.276-.277-.165 0-.275.111-.275.277 0 .166.11.276.275.276Zm19.837.331c.33 0 .606-.276.606-.608a.613.613 0 0 0-.607-.608.613.613 0 0 0-.605.608c0 .332.275.608.605.608Zm19.835.332c.496 0 .937-.442.937-.94 0-.498-.441-.94-.937-.94-.496 0-.937.442-.937.94 0 .498.441.94.937.94Zm19.835.332a1.25 1.25 0 0 0 1.267-1.272c0-.718-.551-1.271-1.267-1.271a1.25 1.25 0 0 0-1.268 1.271 1.25 1.25 0 0 0 1.268 1.272Zm19.835.387c.937 0 1.653-.718 1.653-1.658s-.716-1.659-1.653-1.659c-.936 0-1.653.719-1.653 1.659 0 .94.717 1.658 1.653 1.658Zm19.837.332a1.979 1.979 0 0 0 1.983-1.991c0-1.105-.881-1.99-1.983-1.99a1.98 1.98 0 0 0-1.984 1.99 1.98 1.98 0 0 0 1.984 1.991Zm19.835.331a2.332 2.332 0 0 0 2.314-2.322 2.332 2.332 0 0 0-2.314-2.322 2.332 2.332 0 0 0-2.314 2.322 2.332 2.332 0 0 0 2.314 2.322Zm19.835.332a2.65 2.65 0 0 0 2.645-2.654c0-1.492-1.158-2.653-2.645-2.653-1.488 0-2.645 1.161-2.645 2.653 0 1.493 1.157 2.654 2.645 2.654Zm19.835.331a2.968 2.968 0 0 0 2.976-2.985 2.968 2.968 0 0 0-2.976-2.985 2.967 2.967 0 0 0-2.975 2.985 2.967 2.967 0 0 0 2.975 2.985ZM19.833 298.874s.276-.111.276-.277c0-.166-.11-.276-.276-.276-.165 0-.275.11-.275.276 0 .166.11.277.275.277Zm19.837.331c.33 0 .606-.276.606-.608a.612.612 0 0 0-.607-.608.612.612 0 0 0-.605.608c0 .332.275.608.605.608Zm19.835.387a.989.989 0 0 0 .992-.995.989.989 0 0 0-.992-.995.989.989 0 0 0-.991.995c0 .553.44.995.991.995Zm19.835.332c.717 0 1.323-.608 1.323-1.327s-.606-1.327-1.322-1.327c-.716 0-1.322.608-1.322 1.327s.606 1.327 1.322 1.327Zm19.835.332c.937 0 1.653-.719 1.653-1.659 0-.939-.716-1.658-1.653-1.658-.936 0-1.653.719-1.653 1.658 0 .94.717 1.659 1.653 1.659Zm19.837.386c1.102 0 2.039-.939 2.039-2.045 0-1.106-.937-2.046-2.039-2.046s-2.039.94-2.039 2.046c0 1.106.937 2.045 2.039 2.045Zm19.83.332a2.355 2.355 0 0 0 2.369-2.377 2.355 2.355 0 0 0-2.369-2.377 2.355 2.355 0 0 0-2.369 2.377 2.355 2.355 0 0 0 2.369 2.377Zm19.835.332c1.488 0 2.7-1.216 2.7-2.709a2.709 2.709 0 0 0-2.7-2.709 2.708 2.708 0 0 0-2.699 2.709 2.708 2.708 0 0 0 2.699 2.709Zm19.837.332c1.653 0 3.03-1.382 3.03-3.041 0-1.658-1.377-3.04-3.03-3.04-1.653 0-3.031 1.382-3.031 3.04 0 1.659 1.378 3.041 3.031 3.041ZM0 318.555v-.055.055Zm19.833.221s.276-.11.276-.276c0-.166-.11-.277-.276-.277-.165 0-.275.111-.275.277 0 .166.11.276.275.276Zm19.837.387a.637.637 0 0 0 .661-.663.638.638 0 0 0-.661-.664.638.638 0 0 0-.661.664c0 .387.275.663.661.663Zm19.835.332a.989.989 0 0 0 .992-.995.989.989 0 0 0-.992-.995.989.989 0 0 0-.991.995c0 .553.44.995.991.995Zm19.835.331c.717 0 1.323-.608 1.323-1.326 0-.719-.606-1.327-1.322-1.327-.716 0-1.322.608-1.322 1.327 0 .718.606 1.326 1.322 1.326Zm19.838.388a1.72 1.72 0 0 0 1.708-1.714 1.72 1.72 0 0 0-1.708-1.714 1.72 1.72 0 0 0-1.708 1.714c0 .94.771 1.714 1.708 1.714Zm19.834.331c1.102 0 2.039-.94 2.039-2.045 0-1.106-.937-2.046-2.039-2.046s-2.039.94-2.039 2.046c0 1.105.937 2.045 2.039 2.045Zm19.83.332a2.355 2.355 0 0 0 2.369-2.377 2.355 2.355 0 0 0-2.369-2.377 2.355 2.355 0 0 0-2.369 2.377 2.355 2.355 0 0 0 2.369 2.377Zm19.837.388a2.733 2.733 0 0 0 2.754-2.765 2.732 2.732 0 0 0-2.754-2.764 2.732 2.732 0 0 0-2.755 2.764 2.733 2.733 0 0 0 2.755 2.765Zm19.835.331a3.086 3.086 0 0 0 3.086-3.096 3.086 3.086 0 1 0-6.171 0 3.085 3.085 0 0 0 3.085 3.096ZM19.833 338.679s.276-.111.276-.276c0-.166-.11-.277-.276-.277-.165 0-.275.111-.275.277 0 .165.11.276.275.276Zm19.837.387a.637.637 0 0 0 .661-.663.638.638 0 0 0-.661-.664.638.638 0 0 0-.661.664c0 .387.275.663.661.663Zm19.835.332a.99.99 0 0 0 .992-.995.99.99 0 0 0-.992-.996.99.99 0 0 0-.991.996c0 .552.44.995.991.995Zm19.835.332c.717 0 1.323-.608 1.323-1.327s-.606-1.327-1.322-1.327c-.716 0-1.322.608-1.322 1.327s.606 1.327 1.322 1.327Zm19.835.331c.937 0 1.653-.719 1.653-1.658 0-.94-.716-1.659-1.653-1.659-.936 0-1.653.719-1.653 1.659 0 .939.717 1.658 1.653 1.658Zm19.837.387c1.102 0 2.039-.939 2.039-2.045 0-1.106-.937-2.046-2.039-2.046s-2.039.94-2.039 2.046c0 1.106.937 2.045 2.039 2.045Zm19.83.332a2.356 2.356 0 0 0 2.369-2.377 2.356 2.356 0 0 0-2.369-2.378 2.356 2.356 0 0 0-2.369 2.378 2.356 2.356 0 0 0 2.369 2.377Zm19.835.332c1.488 0 2.7-1.216 2.7-2.709a2.709 2.709 0 0 0-2.7-2.709 2.708 2.708 0 0 0-2.699 2.709 2.708 2.708 0 0 0 2.699 2.709Zm19.837.387a3.087 3.087 0 0 0 3.086-3.096 3.086 3.086 0 1 0-6.171 0 3.086 3.086 0 0 0 3.085 3.096ZM19.833 358.582s.276-.111.276-.277c0-.166-.11-.276-.276-.276-.165 0-.275.11-.275.276 0 .166.11.277.275.277Zm19.837.332c.33 0 .606-.277.606-.608a.613.613 0 0 0-.607-.609.613.613 0 0 0-.605.609c0 .331.275.608.605.608Zm19.835.331c.496 0 .937-.442.937-.94 0-.497-.441-.94-.937-.94-.496 0-.937.443-.937.94 0 .498.441.94.937.94Zm19.835.332c.716 0 1.267-.553 1.267-1.271a1.25 1.25 0 0 0-1.267-1.272 1.25 1.25 0 0 0-1.268 1.272 1.25 1.25 0 0 0 1.268 1.271Zm19.835.387c.937 0 1.653-.719 1.653-1.659 0-.94-.716-1.658-1.653-1.658-.936 0-1.653.718-1.653 1.658s.717 1.659 1.653 1.659Zm19.837.332a1.978 1.978 0 0 0 1.983-1.99 1.979 1.979 0 0 0-1.983-1.991 1.98 1.98 0 0 0-1.984 1.991 1.98 1.98 0 0 0 1.984 1.99Zm19.835.331a2.332 2.332 0 0 0 2.314-2.322 2.332 2.332 0 0 0-2.314-2.322 2.332 2.332 0 0 0-2.314 2.322 2.332 2.332 0 0 0 2.314 2.322Zm19.835.332a2.65 2.65 0 0 0 2.645-2.653c0-1.493-1.158-2.654-2.645-2.654-1.488 0-2.645 1.161-2.645 2.654 0 1.492 1.157 2.653 2.645 2.653Zm19.832.387c1.653 0 3.03-1.382 3.03-3.041 0-1.658-1.377-3.04-3.03-3.04-1.653 0-3.031 1.382-3.031 3.04 0 1.659 1.378 3.041 3.031 3.041ZM19.833 378.429s.22-.111.22-.221a.237.237 0 0 0-.22-.221c-.11 0-.22.11-.22.221 0 .11.11.221.22.221Zm19.835.332c.33 0 .551-.221.551-.553 0-.331-.22-.553-.551-.553-.33 0-.55.222-.55.553 0 .332.22.553.55.553Zm19.836.332a.872.872 0 0 0 .881-.885.872.872 0 0 0-.881-.885.872.872 0 0 0-.882.885c0 .498.386.885.882.885Zm19.834.332c.662 0 1.213-.553 1.213-1.217 0-.663-.552-1.216-1.213-1.216-.66 0-1.212.553-1.212 1.216 0 .664.551 1.217 1.212 1.217Zm19.837.386c.882 0 1.598-.719 1.598-1.603 0-.885-.716-1.603-1.598-1.603-.882 0-1.598.718-1.598 1.603 0 .884.716 1.603 1.598 1.603Zm19.834.332c1.047 0 1.929-.884 1.929-1.935 0-1.05-.882-1.935-1.929-1.935-1.046 0-1.928.885-1.928 1.935 0 1.051.882 1.935 1.928 1.935Zm19.836.332a2.239 2.239 0 0 0 2.259-2.267 2.238 2.238 0 0 0-2.259-2.267 2.238 2.238 0 0 0-2.259 2.267c0 1.271.992 2.267 2.259 2.267Zm19.836.332a2.591 2.591 0 0 0 2.59-2.599 2.591 2.591 0 0 0-2.59-2.598 2.59 2.59 0 0 0-2.589 2.598 2.591 2.591 0 0 0 2.589 2.599Zm19.834.331c1.598 0 2.92-1.327 2.92-2.93 0-1.603-1.322-2.93-2.92-2.93-1.598 0-2.92 1.327-2.92 2.93 0 1.603 1.322 2.93 2.92 2.93ZM19.836 398.277s.166-.055.166-.166c0-.11-.056-.166-.166-.166-.11 0-.165.056-.165.166 0 .111.055.166.165.166Zm19.836.331s.496-.221.496-.497a.495.495 0 1 0-.992 0c0 .276.22.497.496.497Zm19.835.333a.85.85 0 0 0 .827-.83.849.849 0 0 0-.827-.829.849.849 0 0 0-.826.829c0 .443.385.83.826.83Zm19.835.331c.661 0 1.157-.498 1.157-1.161s-.496-1.161-1.157-1.161-1.157.498-1.157 1.161.496 1.161 1.157 1.161Zm19.835.331c.826 0 1.488-.663 1.488-1.492 0-.83-.662-1.493-1.488-1.493-.827 0-1.488.663-1.488 1.493 0 .829.662 1.492 1.488 1.492Zm19.832.333c.991 0 1.818-.83 1.818-1.825s-.827-1.824-1.818-1.824c-.992 0-1.819.829-1.819 1.824 0 .995.827 1.825 1.819 1.825Zm19.834.331c1.157 0 2.149-.94 2.149-2.156 0-1.217-.937-2.157-2.149-2.157s-2.149.94-2.149 2.157c0 1.216.937 2.156 2.149 2.156Zm19.835.332a2.474 2.474 0 0 0 2.48-2.488 2.474 2.474 0 0 0-2.48-2.488 2.473 2.473 0 0 0-2.479 2.488 2.473 2.473 0 0 0 2.479 2.488Zm19.835.331a2.826 2.826 0 0 0 2.81-2.819c0-1.548-1.267-2.82-2.81-2.82-1.542 0-2.81 1.272-2.81 2.82a2.827 2.827 0 0 0 2.81 2.819ZM19.832 418.069v-.055.055Zm19.838.332s.385-.166.385-.387a.377.377 0 0 0-.385-.387.377.377 0 0 0-.386.387c0 .221.165.387.386.387Zm19.834.332a.73.73 0 0 0 .717-.719.73.73 0 0 0-.717-.719.73.73 0 0 0-.716.719c0 .387.33.719.716.719Zm19.836.331c.55 0 1.047-.497 1.047-1.05s-.441-1.051-1.047-1.051c-.606 0-1.047.443-1.047 1.051 0 .608.44 1.05 1.047 1.05Zm19.834.332c.772 0 1.378-.608 1.378-1.382 0-.774-.606-1.382-1.378-1.382-.771 0-1.377.608-1.377 1.382 0 .774.606 1.382 1.377 1.382Zm19.836.332a1.72 1.72 0 0 0 1.708-1.714 1.72 1.72 0 0 0-1.708-1.714 1.72 1.72 0 0 0-1.708 1.714c0 .94.771 1.714 1.708 1.714Zm19.835.331c1.102 0 2.039-.94 2.039-2.046 0-1.105-.937-2.045-2.039-2.045s-2.038.94-2.038 2.045c0 1.106.936 2.046 2.038 2.046Zm19.835.277a2.332 2.332 0 0 0 2.314-2.322 2.332 2.332 0 0 0-2.314-2.322 2.332 2.332 0 0 0-2.314 2.322 2.332 2.332 0 0 0 2.314 2.322Zm19.835.331a2.65 2.65 0 0 0 2.645-2.654c0-1.492-1.157-2.653-2.645-2.653s-2.645 1.161-2.645 2.653c0 1.493 1.157 2.654 2.645 2.654ZM39.673 438.193s.276-.111.276-.277c0-.165-.11-.276-.276-.276-.165 0-.275.111-.275.276 0 .166.11.277.275.277Zm19.835.332c.33 0 .606-.277.606-.608a.612.612 0 0 0-.606-.608.612.612 0 0 0-.606.608c0 .331.276.608.606.608Zm19.835.331c.496 0 .937-.442.937-.94 0-.497-.441-.939-.937-.939-.496 0-.937.442-.937.939 0 .498.441.94.937.94Zm19.834.276c.661 0 1.212-.552 1.212-1.216 0-.663-.55-1.216-1.212-1.216-.661 0-1.212.553-1.212 1.216 0 .664.55 1.216 1.212 1.216Zm19.835.332c.826 0 1.542-.718 1.542-1.548 0-.829-.716-1.548-1.542-1.548-.827 0-1.543.719-1.543 1.548 0 .83.716 1.548 1.543 1.548Zm19.835.332a1.86 1.86 0 0 0 1.873-1.88 1.86 1.86 0 0 0-1.873-1.879 1.86 1.86 0 0 0-1.873 1.879 1.86 1.86 0 0 0 1.873 1.88Zm19.834.277c1.157 0 2.149-.94 2.149-2.156 0-1.217-.937-2.156-2.149-2.156s-2.149.939-2.149 2.156c0 1.216.937 2.156 2.149 2.156Zm19.836.331a2.473 2.473 0 0 0 2.479-2.488 2.473 2.473 0 0 0-2.479-2.488 2.474 2.474 0 0 0-2.48 2.488 2.474 2.474 0 0 0 2.48 2.488ZM39.67 457.985s.164-.055.164-.166c0-.11-.055-.166-.165-.166-.11 0-.165.056-.165.166 0 .111.055.166.165.166Zm19.834.277s.441-.221.441-.442-.22-.443-.44-.443c-.221 0-.441.222-.441.443s.22.442.44.442Zm19.835.331c.44 0 .771-.331.771-.774a.755.755 0 0 0-.771-.774.755.755 0 0 0-.772.774c0 .443.33.774.772.774Zm19.835.332a1.106 1.106 0 0 0 0-2.211 1.107 1.107 0 0 0 0 2.211Zm19.833.276c.772 0 1.378-.608 1.378-1.382 0-.774-.606-1.382-1.378-1.382-.771 0-1.377.608-1.377 1.382 0 .774.606 1.382 1.377 1.382Zm19.836.332a1.72 1.72 0 0 0 1.708-1.714 1.72 1.72 0 0 0-1.708-1.714 1.72 1.72 0 0 0-1.708 1.714c0 .94.771 1.714 1.708 1.714Zm19.84.277a1.979 1.979 0 0 0 1.983-1.991c0-1.105-.881-1.99-1.983-1.99a1.98 1.98 0 0 0-1.984 1.99 1.98 1.98 0 0 0 1.984 1.991Zm19.834.276a2.238 2.238 0 0 0 2.259-2.267 2.239 2.239 0 0 0-2.259-2.267 2.239 2.239 0 0 0-2.259 2.267c0 1.272.992 2.267 2.259 2.267ZM39.67 477.778v-.056.056Zm19.836.276s.33-.166.33-.332c0-.165-.164-.331-.33-.331-.165 0-.33.166-.33.331 0 .166.165.332.33.332Zm19.834.276c.33 0 .606-.276.606-.608a.612.612 0 0 0-.606-.608.612.612 0 0 0-.606.608c0 .332.276.608.606.608Zm19.836.332c.496 0 .937-.443.937-.94 0-.498-.441-.94-.937-.94-.496 0-.937.442-.937.94 0 .497.441.94.937.94Zm19.833.277c.661 0 1.212-.553 1.212-1.217 0-.663-.551-1.216-1.212-1.216-.661 0-1.212.553-1.212 1.216 0 .664.551 1.217 1.212 1.217Zm19.834.276c.826 0 1.488-.664 1.488-1.493 0-.829-.662-1.493-1.488-1.493s-1.488.664-1.488 1.493c0 .829.662 1.493 1.488 1.493Zm19.839.276c.992 0 1.763-.774 1.763-1.769 0-.995-.771-1.769-1.763-1.769-.992 0-1.763.774-1.763 1.769 0 .995.771 1.769 1.763 1.769Zm19.836.277c1.102 0 2.039-.94 2.039-2.046 0-1.106-.937-2.046-2.039-2.046s-2.039.94-2.039 2.046c0 1.106.937 2.046 2.039 2.046ZM59.502 497.791s.165-.055.165-.166c0-.11-.055-.166-.165-.166-.11 0-.165.056-.165.166 0 .111.055.166.165.166Zm19.841.276s.44-.221.44-.442-.22-.442-.44-.442-.44.221-.44.442.22.442.44.442Zm19.832.276a.73.73 0 0 0 .717-.718.73.73 0 0 0-.717-.719.73.73 0 0 0-.716.719c0 .387.33.718.716.718Zm19.835.277a.99.99 0 0 0 .992-.995.99.99 0 0 0-.992-.995.988.988 0 0 0-.991.995c0 .553.44.995.991.995Zm19.834.276c.717 0 1.268-.552 1.268-1.271a1.25 1.25 0 0 0-1.268-1.272 1.25 1.25 0 0 0-1.267 1.272c0 .719.551 1.271 1.267 1.271Zm19.833.277c.826 0 1.542-.719 1.542-1.548 0-.829-.716-1.548-1.542-1.548-.827 0-1.543.719-1.543 1.548 0 .829.716 1.548 1.543 1.548Zm19.841.276c.991 0 1.818-.829 1.818-1.824 0-.995-.827-1.825-1.818-1.825-.992 0-1.819.83-1.819 1.825s.827 1.824 1.819 1.824Zm-99.177 18.3s.221-.111.221-.221a.237.237 0 0 0-.22-.221c-.11 0-.22.11-.22.221 0 .11.11.221.22.221Zm19.835.276s.496-.221.496-.498a.494.494 0 0 0-.496-.497.494.494 0 0 0-.495.497c0 .277.22.498.495.498Zm19.834.277a.754.754 0 0 0 .771-.774.754.754 0 0 0-.771-.774.755.755 0 0 0-.772.774c0 .442.331.774.772.774Zm19.834.276c.551 0 1.046-.498 1.046-1.05 0-.553-.44-1.051-1.046-1.051-.607 0-1.047.442-1.047 1.051 0 .608.44 1.05 1.047 1.05Zm19.834.276c.716 0 1.322-.608 1.322-1.327 0-.718-.606-1.327-1.322-1.327-.717 0-1.323.609-1.323 1.327 0 .719.606 1.327 1.323 1.327Zm19.838.222c.827 0 1.543-.719 1.543-1.548 0-.829-.716-1.548-1.543-1.548-.826 0-1.542.719-1.542 1.548 0 .829.716 1.548 1.542 1.548Zm-79.339 18.631s.275-.111.275-.277c0-.166-.11-.276-.275-.276-.165 0-.276.11-.276.276 0 .166.11.277.276.277Zm19.833.277c.33 0 .551-.222.551-.553 0-.332-.221-.553-.551-.553-.331 0-.551.221-.551.553 0 .331.22.553.551.553Zm19.835.276a.85.85 0 0 0 .827-.83.85.85 0 0 0-.827-.829.848.848 0 0 0-.826.829c0 .443.385.83.826.83Zm19.837.221c.551 0 1.046-.498 1.046-1.051 0-.553-.44-1.05-1.046-1.05-.606 0-1.047.442-1.047 1.05 0 .608.441 1.051 1.047 1.051Zm19.832.221a1.25 1.25 0 0 0 1.268-1.271 1.25 1.25 0 0 0-1.268-1.272 1.25 1.25 0 0 0-1.267 1.272c0 .718.551 1.271 1.267 1.271Zm-79.335 18.742s.11 0 .11-.11c0-.111 0-.111-.11-.111s-.11 0-.11.111c0 .11 0 .11.11.11Zm19.831.221s.331-.166.331-.332-.165-.332-.331-.332c-.165 0-.33.166-.33.332s.165.332.33.332Zm19.832.221c.33 0 .551-.221.551-.553 0-.331-.221-.553-.551-.553-.331 0-.551.222-.551.553 0 .332.22.553.551.553Zm19.838.221a.755.755 0 0 0 .772-.774.755.755 0 0 0-.772-.774.755.755 0 0 0-.771.774c0 .442.331.774.771.774Zm19.834.221a.99.99 0 0 0 .992-.995.99.99 0 0 0-.992-.995.99.99 0 0 0-.992.995.99.99 0 0 0 .992.995Zm-59.503 19.019s.111 0 .111-.111 0-.111-.111-.111c-.11 0-.111 0-.111.111s.001.111.111.111Zm19.832.221s.331-.166.331-.332a.356.356 0 0 0-.331-.331c-.165 0-.33.165-.33.331s.165.332.33.332Zm19.839.221c.33 0 .551-.221.551-.553 0-.332-.221-.553-.551-.553-.331 0-.551.221-.551.553 0 .332.22.553.551.553Zm19.831.166a.73.73 0 0 0 .716-.719.73.73 0 0 0-.716-.719.73.73 0 0 0-.716.719c0 .387.33.719.716.719Zm-19.833 19.46s.275-.11.275-.276c0-.166-.11-.277-.275-.277-.165 0-.276.111-.276.277 0 .166.111.276.276.276Zm19.836.166s.441-.221.441-.442-.221-.443-.441-.443-.441.222-.441.443.221.442.441.442Zm-19.837 19.516v-.056.056Zm19.836.11s.165-.055.165-.165c0-.111-.055-.166-.165-.166-.11 0-.165.055-.165.166 0 .11.055.165.165.165ZM199 59.16a.876.876 0 0 0-.651-.28.871.871 0 0 0-.881.884c0 .497.385.884.881.884a.876.876 0 0 0 .651-.28V59.16Zm0 19.483a1.19 1.19 0 0 0-.648-.192c-.661 0-1.212.552-1.212 1.216 0 .663.551 1.216 1.212 1.216.237 0 .46-.071.648-.193v-2.047Zm0 19.58a1.49 1.49 0 0 0-.648-.147c-.827 0-1.488.664-1.488 1.493a1.492 1.492 0 0 0 2.136 1.346v-2.692Zm0 19.6a1.794 1.794 0 0 0-.652-.12c-.992 0-1.763.774-1.763 1.769 0 .995.771 1.769 1.763 1.769.232 0 .451-.042.652-.119v-3.299Zm0 19.671a1.978 1.978 0 0 0-.652-.109 1.98 1.98 0 0 0-1.984 1.99 1.98 1.98 0 0 0 1.984 1.991c.229 0 .448-.039.652-.109v-3.763Zm0 19.609a2.322 2.322 0 0 0-.651-.092 2.238 2.238 0 0 0-2.259 2.267c0 1.271.991 2.266 2.259 2.266.227 0 .445-.032.651-.092v-4.349Zm0 19.675a2.494 2.494 0 0 0-.651-.085 2.474 2.474 0 0 0-2.48 2.488 2.473 2.473 0 0 0 2.48 2.487c.225 0 .444-.029.651-.085v-4.805Zm0 19.676a2.693 2.693 0 0 0-.651-.08 2.709 2.709 0 0 0-2.7 2.709 2.709 2.709 0 0 0 2.7 2.709c.224 0 .442-.028.651-.08v-5.258Zm0 19.677a2.871 2.871 0 0 0-.652-.075c-1.598 0-2.92 1.327-2.92 2.93 0 1.604 1.322 2.93 2.92 2.93.223 0 .442-.026.652-.075v-5.71Zm0 19.729a3.086 3.086 0 0 0-3.733 3.029 3.087 3.087 0 0 0 3.733 3.028v-6.057Zm0 19.733a3.387 3.387 0 0 0-.65-.063 3.228 3.228 0 0 0-3.251 3.262 3.228 3.228 0 0 0 3.251 3.262c.223 0 .44-.022.65-.063v-6.398Zm0 19.849a3.23 3.23 0 0 0-.648-.065c-1.819 0-3.306 1.493-3.306 3.317 0 1.825 1.487 3.318 3.306 3.318.221 0 .438-.023.648-.065v-6.505Zm0 19.791a3.335 3.335 0 0 0-.651-.064c-1.874 0-3.416 1.548-3.416 3.428s1.542 3.428 3.416 3.428c.222 0 .44-.022.651-.064v-6.728Zm0 19.902a3.413 3.413 0 0 0-.651-.063c-1.874 0-3.416 1.548-3.416 3.427 0 1.88 1.542 3.428 3.416 3.428.222 0 .44-.022.651-.063v-6.729Zm0 19.904a3.335 3.335 0 0 0-.651-.064c-1.874 0-3.416 1.548-3.416 3.428s1.542 3.428 3.416 3.428c.222 0 .44-.022.651-.064v-6.728Zm0 19.956a3.4 3.4 0 0 0-.652-.062 3.346 3.346 0 0 0-3.361 3.373 3.345 3.345 0 0 0 3.361 3.372 3.4 3.4 0 0 0 .652-.062v-6.621Zm0 20.014a3.387 3.387 0 0 0-.65-.063 3.228 3.228 0 0 0-3.251 3.262 3.228 3.228 0 0 0 3.251 3.262c.223 0 .44-.021.65-.063v-6.398Zm0 20.074a3.086 3.086 0 0 0-3.733 3.028 3.086 3.086 0 0 0 3.733 3.028v-6.056Zm0 20.076a2.871 2.871 0 0 0-.652-.075c-1.598 0-2.92 1.327-2.92 2.93 0 1.603 1.322 2.93 2.92 2.93.223 0 .442-.026.652-.075v-5.71Zm0 20.068a2.834 2.834 0 0 0-.65-.075 2.733 2.733 0 0 0-2.755 2.765 2.732 2.732 0 0 0 2.755 2.764c.224 0 .442-.026.65-.075v-5.379Zm0 20.137a2.455 2.455 0 0 0-.649-.088c-1.378 0-2.535 1.161-2.535 2.544 0 1.382 1.157 2.543 2.535 2.543.223 0 .441-.031.649-.088v-4.911Zm0 20.13a2.283 2.283 0 0 0-.649-.094 2.332 2.332 0 0 0-2.314 2.322 2.332 2.332 0 0 0 2.314 2.322c.225 0 .443-.033.649-.095v-4.455Zm0 20.197a1.96 1.96 0 0 0-.65-.112c-1.102 0-2.039.94-2.039 2.046 0 1.105.937 2.045 2.039 2.045.226 0 .445-.039.65-.111v-3.868Zm0 20.187a1.816 1.816 0 0 0-.652-.12c-.992 0-1.763.774-1.763 1.769 0 .996.771 1.77 1.763 1.77.232 0 .451-.043.652-.12v-3.299Zm0 20.207a1.478 1.478 0 0 0-.648-.147c-.827 0-1.488.663-1.488 1.492a1.492 1.492 0 0 0 2.136 1.346v-2.691Zm0 20.225a1.188 1.188 0 0 0-.648-.193c-.661 0-1.212.553-1.212 1.216 0 .664.551 1.217 1.212 1.217.237 0 .46-.071.648-.193v-2.047Zm0 20.265a.934.934 0 0 0-.65-.279c-.496 0-.937.442-.937.94 0 .497.441.939.937.939a.93.93 0 0 0 .65-.279v-1.321Zm-.649-556.34s.275-.11.275-.277c0-.165-.11-.276-.275-.276-.166 0-.276.11-.276.276 0 .166.11.277.276.277Zm-.004 20.235a.612.612 0 0 0 .606-.609.612.612 0 0 0-.606-.608.613.613 0 0 0-.606.608c0 .332.276.608.606.608Zm0 557.277a.613.613 0 0 0 .606-.608.613.613 0 0 0-.606-.609.613.613 0 0 0-.606.609c0 .331.276.608.606.608Zm.336 19.295c0 .165-.331.331-.331.331-.165 0-.331-.166-.331-.331 0-.166.166-.332.331-.332s.331.166.331.332Z"/>
</svg>
